<svg version="1" xmlns="http://www.w3.org/2000/svg" width="666.667" height="666.667" viewBox="0 0 500 500"><path d="M0 14v14h10v-9h9v9h9V0h-9v10h-9V0H0v14zm35-9v5h9v9h-9v9h28v-9h-9v-9h9V0H35v5zm34 9v14h10v-9h9v9h9V0h-8.9l-.3 4.7-.3 4.8-4.2.3-4.3.3V0H69v14zm34-9v5h10v9h-10v9h29v-9h-10v-9h10V0h-29v5zm35 9v14h9v-9h9v9h10V0h-10v10.1l-4.2-.3-4.3-.3-.3-4.8-.3-4.7H138v14zm196 .5V29h10V19h7.9l.3 4.7.3 4.8h10l.3-14.3.3-14.2H352v9h-8V0h-10v14.5zM368 5v5h10.1l-.3 4.2-.3 4.3-4.7.3-4.8.3V29h29V19h-9v-9h9V0h-29v5zm35 9.6v14.5l4.8-.3 4.7-.3.3-4.8.3-4.7h7.9v10h10V0h-10v9h-8V0h-10v14.6zM437 5v5h9v9h-9v10.1l14.3-.3 14.2-.3.3-4.7.3-4.7-4.8-.3-4.8-.3-.3-4.3-.3-4.2H466V0h-29v5zm34.2 9.2l.3 14.3 4.7.3 4.7.3.3-4.8.3-4.8h8l.3 4.7.3 4.8h9.9V0h-10v9h-9V0h-10.1l.3 14.2zM334 38v5h9v9h-9v10h29V52h-10.1l.3-4.3.3-4.2 4.8-.3 4.8-.3-.3-4.7-.3-4.7-14.2-.3-14.3-.3V38zm34 9.5V62h10v-9h9v9h10V33h-10v10.1l-4.2-.3-4.3-.3-.3-4.8-.3-4.7H368v14.5zm35-9.5v5h9v9h-9v10h28V52h-9v-9h9V33h-28v5zm34 9.5V62h10v-9h9v9h10.1l-.3-14.3-.3-14.2-4.7-.3-4.7-.3-.3 4.8-.3 4.8h-8l-.3-4.8-.3-4.7H437v14.5zm34.7-13.8c-.4.3-.7 2.6-.7 4.9v4.3l4.8.3 4.7.3v8l-4.7.3-4.8.3V62h29V52h-9v-9h9V33h-13.8c-7.6 0-14.2.3-14.5.7zM0 38.5V43h10v9H0v10h28V52h-9v-9h9v-9H0v4.5zM35 48v14h9V52h9v10h10V34H53v9h-9v-9h-9v14zm34-9.5V43h9v9h-9v10h28V52h-9v-9h9v-9H69v4.5zm34 9.5v14h10V52h9v10h10V34h-10v9h-9v-9h-10v14zm35-9.5V43h9v9h-9v10h28V52h-9v-9h9v-9h-28v4.5zM0 81v14h10v-9h9v9h9V67h-9v9h-9v-9H0v14zm35-9.5V76h9v9h-9v10h28V85h-9v-9h9v-9H35v4.5zM69 81v14h10v-9h9v9h9V67h-9v9h-9v-9H69v14zm34-9.6v4.5l4.8.3 4.7.3.3 4.2.3 4.3H103v10h29V85h-10v-9h10v-9h-29v4.4zm35 9.6v14h9v-9h9v9h10V67h-10v9h-9v-9h-9v14zm196 0v14h10v-9h8v9h11V67h-11v9h-8v-9h-10v14zm34-9v5h10v8h-10v10h29V85h-9v-8h9V67h-29v5zm35 9v14h10v-9h8v9h10V67h-10v9h-8v-9h-10v14zm34-9v5h9v8h-9v10h29V85h-10v-7.9l4.8-.3 4.7-.3.3-4.8.3-4.7H437v5zm34 9v14h10v-9h9v9h10V67h-10v9.1l-4.2-.3c-4.3-.3-4.3-.3-4.6-4.6l-.3-4.2H471v14zM0 105v5h10.1l-.3 4.2-.3 4.3-4.7.3-4.8.3v8.9h28v-9h-9v-9h9v-10H0v5zm35 9v14h9v-9h9v9h10v-28H53v9h-9v-9h-9v14zm34-9v5h9v9h-9v9h28v-9h-9v-9h9v-10H69v5zm34 9v14h10v-9h9v9h10v-28h-10v9h-9v-9h-10v14zm35-9v5h9.1l-.3 4.2c-.3 4.3-.3 4.3-4.5 4.6l-4.3.3v8.9h28v-9h-9v-9h9v-10h-28v5zm196 0v5h9v8h-9v11.1l14.3-.3 14.2-.3v-10l-4.7-.3-4.8-.3V110h10v-10h-29v5zm34 9.5V129h9.9l.3-4.8.3-4.7h8l.3 4.7.3 4.8h9.9v-29h-10v9h-9v-9h-10v14.5zm35-9.5v5h9v8h-9v11h28v-11h-9v-8h9v-10h-28v5zm34 9.5V129h9.9l.3-4.8.3-4.7h8l.3 4.8.3 4.8 4.7-.3 4.7-.3.3-14.3.3-14.2H456v9h-9v-9h-10v14.5zm34-9.5v5h10v7.9l-4.7.3-4.8.3v10l14.3.3 14.2.3V118h-9v-8h9v-10h-29v5zM0 147.5V162h10v-10h9v10h9v-29h-9v10h-9v-10H0v14.5zm35-9.5v5h9v9h-9v10h28v-10h-9v-9h9v-10H35v5zm34 9.5V162h10v-10.1l4.3.3 4.2.3.3 4.7.3 4.8H97v-29h-8.9l-.3 4.7-.3 4.8-4.2.3-4.3.3V133H69v14.5zm34-9.6v5l4.8.3 4.7.3v8l-4.7.3-4.8.3v9.9h29v-10h-10v-9h10v-10h-29v4.9zm35 9.6V162h10.2l-.6-4.4c-.8-5.2 0-6 4.9-5 3.4.6 3.5.8 3.5 5v4.4h10v-29h-10v10.1l-4.2-.3-4.3-.3-.3-4.8-.3-4.7H138v14.5zm196 0V162h10v-9h8v9h11v-29h-11v9h-8v-9h-10v14.5zm34-9.6v5l4.8.3 4.7.3v8l-4.7.3-4.8.3v9.9h29v-10h-9v-9h9v-10h-29v4.9zm35 9.6V162h10v-9h8v9h10v-29h-10v9h-8v-9h-10v14.5zm34-9.5v5h9v9h-9v10h29v-9.9l-4.7-.3-4.8-.3v-8l4.8-.3 4.7-.3V133h-29v5zm34 9.5V162h10v-9h9v9h10v-29h-10v9h-9v-9h-10v14.5zm-333.6 19.9c-.3.8-.4 3.1-.2 5.2.3 3.9.3 3.9 5.1 4.2l4.7.3v7.9h-10v10h29v-10h-9v-8h9v-11h-14c-11.1 0-14.2.3-14.6 1.4zm32.6 13.1V195h10v-9h9v9h10v-29h-10v10h-9v-10h-10v14.5zm33-9v5.5h9v8h-9v10h29v-10h-10v-7.9l4.8-.3 4.7-.3v-10l-14.2-.3-14.3-.3v5.6zm33 8.9V195h10v-9h8v9h10v-29.1l-4.7.3-4.8.3-.3 4.7-.3 4.8h-7.8l-.3-4.8-.3-4.7-4.7-.3-4.8-.3v14.5zm32.4-13c-.3.8-.4 3.1-.2 5.2.3 3.9.3 3.9 5.1 4.2l4.7.3v7.9h-10v10h29v-10h-9v-8h9v-11h-14c-11.1 0-14.2.3-14.6 1.4zm32.6 13.1V195h10v-9h9v9h10v-29h-9.9l-.3 4.7-.3 4.8-4.2.3-4.3.3V166h-10v14.5zm33-9v5.5h9v8h-9v10h29v-10h-10v-7.9l4.8-.3 4.7-.3v-10l-14.2-.3-14.3-.3v5.6zm34 9V195h10v-9h9v9h10v-29h-10v10.1l-4.2-.3-4.3-.3-.3-4.8-.3-4.7H368v14.5zm35-9v5.5h9v8h-9v10h28v-10h-9v-8h9v-11h-28v5.5zm34 9V195h10v-9h9v9h10.1l-.3-14.3-.3-14.2-4.7-.3-4.7-.3-.3 4.8-.3 4.8-4.2.3-4.3.3V166h-10v14.5zm34.4-13.1c-.3.8-.4 3.1-.2 5.2.3 3.9.3 3.9 5.1 4.2l4.7.3v7.9h-10v10h29v-10h-9v-8h9v-11h-14c-11.1 0-14.2.3-14.6 1.4zM0 171.4v4.5l4.8.3 4.7.3.3 4.2.3 4.3H0v10h28v-10h-9v-9h9v-9H0v4.4zm35 9.6v14h9v-9h9v9h10v-28H53v9h-9v-9h-9v14zm34-9.5v4.5h9v9h-9v10h28v-10h-9.1l.3-4.3c.3-4.2.3-4.2 4.6-4.5l4.2-.3V167H69v4.5zm34 9.5v14h10v-9h9v9h10v-28h-10v9h-9v-9h-10v14zM0 215.5V230h10v-10h9v10h9v-29h-8.9l-.3 4.7-.3 4.8-4.2.3-4.3.3V201H0v14.5zm35-9.5v5h9v9h-9v10h28v-10h-9v-9h9v-10H35v5zm34 9.5V230h10v-10h8v10h10v-29h-8.9l-.3 4.7-.3 4.8-4.2.3-4.3.3V201H69v14.5zm34-9.5v5h9v9h-9v10h29v-9.9l-4.7-.3-4.8-.3-.3-4.3-.3-4.2H132v-10h-29v5zm34 9.5V230h11v-10h8v10h10v-29h-10v9h-8v-9h-11v14.5zm33-9.5v5h9v9h-9v10h29v-10h-9v-9h9v-10h-29v5zm33 9.5V230h10v-10.1l4.3.3 4.2.3.3 4.7.3 4.8h9.9v-29h-10v9h-9v-9h-10v14.5zm33-9.5v5h9v9h-9v10h28v-10h-9v-9h9v-10h-28v5zm32 9.5V230h9.9l.3-4.8.3-4.7h8l.3 4.7.3 4.8h9.9v-29h-10v9h-9v-9h-10v14.5zm33-9.5v5h9v9h-9v10h29v-10h-9v-9h9v-10h-29v5zm33 9.5V230h10v-10h8v10h11v-29h-11v9h-8v-9h-10v14.5zm34-9.6v5l4.8.3 4.7.3v8l-4.7.3-4.8.3v9.9h29v-10h-9v-9h9v-10h-29v4.9zm35 9.6V230h10v-10h8v10h10v-29h-10v9h-8v-9h-10v14.5zm34-9.5v5h9v9h-9v10h29v-9.9l-4.7-.3-4.8-.3v-8l4.8-.3 4.7-.3V201h-29v5zm34 9.5V230h9.9l.3-4.8.3-4.7h8l.3 4.7.3 4.8h9.9v-29h-10v9h-9v-9h-10v14.5zM0 241v5h10.1l-.3 4.2-.3 4.3-4.7.3-4.8.3v8.9h28v-8.9l-4.2-.3c-4.3-.3-4.3-.3-4.6-4.6l-.3-4.2H28v-10H0v5zm35 9v14h9v-9h9v9h10v-28H53v9h-9v-9h-9v14zm34-9v5h9v8h-9v10h28v-10h-9v-8h9v-10H69v5zm34 9v14h10v-9h9v9h10v-28h-10v9h-9v-9h-10v14zm34-9v5h10v7.9l-4.7.3-4.8.3-.3 4.7-.3 4.8H166v-10h-9v-8h9v-10h-29v5zm33 9v14h10v-9h9v9h10v-28h-10v9h-9v-9h-10v14zm33-9v5h9v8h-9v10h29.1l-.3-4.8-.3-4.7-4.7-.3-4.8-.3V246h10v-10h-29v5zm33 9v14h10v-9h8v9h10v-28h-10v9h-8v-9h-10v14zm32-9v5h10v7.9l-4.7.3-4.8.3-.3 4.7-.3 4.8H297v-10h-9v-8h9v-10h-29v5zm33 9v14h10v-9.1l4.3.3c4.2.3 4.2.3 4.5 4.5l.3 4.3h9.9v-28h-9.9l-.3 4.2c-.3 4.3-.3 4.3-4.5 4.6l-4.3.3V236h-10v14zm33-9v5h9v8h-9v10h29.1l-.3-4.8-.3-4.7-4.7-.3-4.8-.3V246h10v-10h-29v5zm34 9v14h9.9l.3-4.3c.3-4.2.3-4.2 4.6-4.5l4.2-.3v9.1h10v-28h-10v9.1l-4.2-.3c-4.3-.3-4.3-.3-4.6-4.6l-.3-4.2H368v14zm35-9v5h9v8h-9v10h28v-10h-9v-8h9v-10h-28v5zm34 9v14h10v-9.1l4.3.3c4.2.3 4.2.3 4.5 4.5l.3 4.3h9.9v-28h-9.9l-.3 4.2c-.3 4.3-.3 4.3-4.5 4.6l-4.3.3V236h-10v14zm34-9v5h10v8h-10v10h29v-10h-9v-8h9v-10h-29v5zM0 284.5V299h10v-4.4c0-5.2.7-5.9 5.5-5 3.4.6 3.5.8 3.5 5v4.4h10v-9.9c0-5.4-.3-11.9-.6-14.5l-.7-4.6H19v10h-9v-10H0v14.5zm34-9.6v5l4.8.3 4.7.3.3 4.2.3 4.3H34v10h29v-10h-9v-9h9v-10H34v4.9zm35 9.6V299h10v-9h8v9h10v-29H87v10h-8v-10H69v14.5zm34-9.5v5h9v9h-9v10h29v-10h-10.1l.3-4.3.3-4.2 4.8-.3 4.7-.3V270h-29v5zm34 9.5V299h11v-9h8v9h10v-29h-10v10h-8v-10h-11v14.5zm33-9.5v5h9v9h-9v10h29v-10h-9v-9h9v-10h-29v5zm33 9.5V299h10v-9h9v9h10v-29h-9.9l-.3 4.7-.3 4.8h-8l-.3-4.8-.3-4.7H203v14.5zm33-9.6v5l4.3.3c4.2.3 4.2.3 4.5 4.5l.3 4.3H236v10h28v-10h-9.1l.3-4.3c.3-4.2.3-4.2 4.6-4.5l4.2-.3V270h-28v4.9zm32 9.6V299h10v-9h9v9h10v-29h-9.9l-.3 4.7-.3 4.8h-8l-.3-4.8-.3-4.7H268v14.5zm33-9.5v5h9v9h-9v10h29v-10h-9v-9h9v-10h-29v5zm33 9.5V299h10v-9h8v9h11v-29h-11v10h-8v-10h-10v14.5zm34-9.6v5l4.8.3 4.7.3v8l-4.7.3-4.8.3v9.9h29v-10h-9v-9h9v-10h-29v4.9zm35 9.6V299h10v-9h8v9h10v-29h-10v10h-8v-10h-10v14.5zm34-9.5v5h9v9h-9v10h29v-9.9l-4.7-.3-4.8-.3v-8l4.8-.3 4.7-.3V270h-29v5zm34 9.5V299h10v-9h9v9h10v-29h-9.9l-.3 4.7-.3 4.8h-8l-.3-4.8-.3-4.7H471v14.5zM0 310v5h9v8H0v11.1l14.3-.3 14.2-.3v-10l-4.7-.3-4.8-.3V315h10v-10H0v5zm34.2 9.2l.3 14.3 4.8.3 4.7.3V324h9v10h10v-29H53v9h-9v-9H33.9l.3 14.2zM69 310v5h9v8h-9v11h28v-11h-9v-8h9v-10H69v5zm34 9.5V334h10v-10h9v10h10v-29h-10v9h-9v-9h-10v14.5zm34-9.5v5h10v7.9l-4.7.3-4.8.3v10l14.3.3 14.2.3V323h-9v-8h9v-10h-29v5zm33 9.5V334h9.9l.3-4.8.3-4.7 4.3-.3 4.2-.3V334h10v-29h-10v9h-9v-9h-10v14.5zm33-9.5v5h9v8h-9v11.1l14.3-.3 14.2-.3v-10l-4.7-.3-4.8-.3V315h10v-10h-29v5zm33 9.6v14.5l4.8-.3 4.7-.3.3-4.8.3-4.7h7.8l.3 4.7.3 4.8 4.8.3 4.7.3V305h-10v9h-8v-9h-10v14.6zm32-9.6v5h10v7.9l-4.7.3-4.8.3v10l14.3.3 14.2.3V323h-9v-8h9v-10h-29v5zm33 9.5V334h10v-10.1l4.3.3 4.2.3.3 4.7.3 4.8h9.9v-29h-10v9h-9v-9h-10v14.5zm33-9.5v5h9v8h-9v11h29v-11h-10v-8h10v-10h-29v5zm34 9.5V334h9.9l.3-4.8.3-4.7 4.3-.3 4.2-.3V334h10v-29h-10v9h-9v-9h-10v14.5zm35-9.5v5h9v8h-9v11h28v-11h-9v-8h9v-10h-28v5zm34 9.5V334h10v-10.1l4.3.3 4.2.3.3 4.7.3 4.8h9.9v-29h-10v9h-9v-9h-10v14.5zm34-9.5v5h10v8h-10v11h29v-11h-9v-8h9v-10h-29v5zM0 352.5V367h10v-9h9v9h10v-29H19v9h-9v-9H0v14.5zm34-9.5v5h10.1l-.3 4.2-.3 4.3-4.7.3-4.8.3v9.9h29v-10h-9v-9h9v-10H34v5zm35 9.5V367h10v-9h8v9h10v-29H87v9h-8v-9H69v14.5zm34-9.5v5h9v9h-9v10h29v-9.9l-4.7-.3-4.8-.3-.3-4.3-.3-4.2H132v-10h-29v5zm34 9.5V367h11v-9h8v9h10v-29h-10v9h-8v-9h-11v14.5zm197 0V367h10v-9h8v9h11v-29h-11v9h-8v-9h-10v14.5zm34-9.6v5l4.8.3 4.7.3v8l-4.7.3-4.8.3v9.9h29v-10h-9v-9h9v-10h-29v4.9zm35 9.6V367h10v-9h8v9h10v-29h-10v9h-8v-9h-10v14.5zm34-9.5v5h9v9h-9v10h29v-9.9l-4.7-.3-4.8-.3v-8l4.8-.3 4.7-.3V338h-29v5zm34 9.5V367h10v-9h9v9h10v-29h-10v9h-9v-9h-10v14.5zm-471 24v5.5h9v8H0v10h29v-10H19v-7.9l4.8-.3 4.7-.3v-10l-14.2-.3-14.3-.3v5.6zm34.7-4.8c-.4.3-.7 6.9-.7 14.5V400h10v-9h9v9h10v-29H53v10.1l-4.2-.3-4.3-.3-.3-4.8-.3-4.7h-4.3c-2.3 0-4.6.3-4.9.7zm34.3 4.8v5.5h9v8h-9v10h28v-10h-9v-8h9v-11H69v5.5zm34 9V400h10v-9h9v9h10v-29h-9.9l-.3 4.7-.3 4.8h-8l-.3-4.8-.3-4.7H103v14.5zm34.4-13.1c-.3.8-.4 3.1-.2 5.2.3 3.9.3 3.9 5.1 4.2l4.7.3v7.9h-10v10h29v-10h-9v-8h9v-11h-14c-11.1 0-14.2.3-14.6 1.4zm196.6 4.1v5.5h9v8h-9v10h29v-10h-10v-8h10v-11h-29v5.5zm34 9V400h10v-9h9v9h10v-29h-9.9l-.3 4.7-.3 4.8h-8l-.3-4.8-.3-4.7H368v14.5zm35-9v5.5h9v8h-9v10h28v-10h-9v-8h9v-11h-28v5.5zm34 9V400h10v-9h9v9h10v-29h-9.9l-.3 4.7-.3 4.8h-8l-.3-4.8-.3-4.7H437v14.5zm34-9v5.5h10v8h-10v10h29v-10h-9v-8h9v-11h-29v5.5zM0 419v14h10v-9h9v9h10v-28H19v9h-9v-9H0v14zm34-9v5h10v7.9l-4.7.3-4.8.3-.3 4.7-.3 4.8H63v-10h-9v-8h9v-10H34v5zm35 9v14h10v-9h8v9h10v-28H87v9h-8v-9H69v14zm34-9v5h9v8h-9v10h29v-10h-10v-8h10v-10h-29v5zm34 9v14h11v-9h8v9h10v-28h-10v9h-8v-9h-11v14zm197 0v14h10v-9h8v9h11v-28h-11v9h-8v-9h-10v14zm34-9v5h10v8h-10v10h29v-10h-9v-8h9v-10h-29v5zm35 9v14h10v-9h8v9h10v-28h-10v9h-8v-9h-10v14zm34-9v5h9v8h-9v10h29v-10h-10v-8h10v-10h-29v5zm34 9v14h9.9l.3-4.3c.3-4.2.3-4.2 4.6-4.5l4.2-.3v9.1h10v-28h-10v9h-9v-9h-10v14zM0 443v5h9v9H0v10.1l14.3-.3 14.2-.3.3-4.7.3-4.7-4.8-.3-4.8-.3-.3-4.3-.3-4.2H29v-10H0v5zm34.2 9.2l.3 14.3 4.7.3 4.7.3.3-4.8.3-4.8h8l.3 4.7.3 4.8H63v-29H53v9h-9v-9H33.9l.3 14.2zM69 443v5h9v9h-9v10h28v-9.9l-4.2-.3c-4.3-.3-4.3-.3-4.6-4.6l-.3-4.2H97v-10H69v5zm34 9.5V467h9.9l.3-4.8.3-4.7h8l.3 4.7.3 4.8h9.9v-29h-10v9h-9v-9h-10v14.5zm34-9.6v5l4.8.3 4.7.3v8l-4.8.3-4.8.3.3 4.7.3 4.7 14.3.3 14.2.3V457h-9v-9h9v-10h-29v4.9zm197 .1v5h9v9h-9v10h29v-9.9l-4.7-.3-4.8-.3v-8l4.8-.3 4.7-.3V438h-29v5zm34 9.5V467h9.9l.3-4.8.3-4.7h8l.3 4.7.3 4.8h9.9v-29h-10v9h-9v-9h-10v14.5zm35-9.5v5h9.1l-.3 4.2c-.3 4.3-.3 4.3-4.5 4.6l-4.3.3v9.9h28v-10h-9v-9h9v-10h-28v5zm34 9.5V467h9.9l.3-4.8.3-4.7h8l.3 4.7.3 4.8h9.9v-29h-10v9h-9v-9h-10v14.5zm34-9.6v5l4.8.3 4.7.3v8l-4.7.3-4.8.3v9.9h29v-10h-9v-9h9v-10h-29v4.9zM0 485.5V500h10v-9h9v9h10.1l-.3-14.3-.3-14.2-4.7-.3-4.7-.3-.3 4.8-.3 4.8h-8l-.3-4.8-.3-4.7H0v14.5zm34.7-13.8c-.4.3-.7 2.6-.7 4.9v4.3l4.8.3 4.7.3v8l-4.7.3-4.8.3v9.9h29v-10h-9v-9h9v-10H49.2c-7.6 0-14.2.3-14.5.7zM69 485.5V500h10v-9h8v9h10v-29.1l-4.7.3-4.8.3-.3 4.7-.3 4.8H79v-10H69v14.5zm34-9.5v5h9v9h-9v10h29v-9.9l-4.7-.3-4.8-.3v-8l4.8-.3 4.7-.3V471h-29v5zm34.7-4.4c-.4.4-.7 7-.7 14.6V500h11v-9h8v9h10v-29h-10v10h-7.9l-.3-4.8-.3-4.7-4.5-.3c-2.5-.2-4.9 0-5.3.4zM334 485.5V500h10v-9h8v9h11v-29h-11v10h-8v-10h-10v14.5zm34-9.6v5l4.8.3 4.7.3v8l-4.7.3-4.8.3v9.9h29v-10h-9v-9h9v-10h-29v4.9zm35 9.6V500h10v-9h8v9h10v-29h-10v10h-8v-10h-10v14.5zm34-9.5v5h9v9h-9v10h29v-9.9l-4.7-.3-4.8-.3v-8l4.8-.3 4.7-.3V471h-29v5zm34 9.5V500h10v-9h9v9h10v-29h-9.9l-.3 4.7-.3 4.8h-8l-.3-4.8-.3-4.7H471v14.5z"/></svg>