<svg xmlns="http://www.w3.org/2000/svg" height="38.627" width="329.147"><path d="M256.945 31.838c-.126-1.784-.934-3.08-2.336-3.08-1.317 0-2.252 1.168-2.421 3.08zm-7.137.87v-.168c0-3.378 2.039-5.8 4.801-5.8 3.058 0 4.672 2.55 4.672 5.926 0 .15 0 .49-.02.83h-7.052c.212 1.888 1.38 2.908 2.847 2.908 1.061 0 1.847-.466 2.59-1.189l1.253 1.487c-1.018 1.084-2.272 1.74-3.951 1.74-2.888 0-5.14-2.208-5.14-5.734zm-4.252-.02v-.212c0-2.21-1.232-3.612-2.676-3.612-1.465 0-2.613 1.359-2.613 3.632v.17c0 2.252 1.169 3.633 2.613 3.633s2.676-1.403 2.676-3.61zm-7.71.041v-.276c0-3.802 2.102-5.713 4.377-5.713 1.634 0 2.61.935 3.29 1.911v-5.777h2.402V38.21h-2.402v-1.806c-.7 1.083-1.677 2.019-3.29 2.019-2.254 0-4.378-1.892-4.378-5.694zm-4.462-5.777h2.4V38.21h-2.4zm-.085-3.992h2.548v2.357h-2.548zm-16.575 3.992h2.464l1.913 7.604 2.082-7.625h2.04l2.08 7.625 1.932-7.604h2.422l-3.164 11.343h-2.21l-2.103-7.519-2.124 7.519h-2.188zm-3.975 5.736v-.212c0-2.21-1.232-3.612-2.676-3.612-1.465 0-2.612 1.359-2.612 3.632v.17c0 2.252 1.167 3.633 2.612 3.633 1.444 0 2.676-1.403 2.676-3.61zm-7.709.041v-.276c0-3.802 2.101-5.713 4.375-5.713 1.636 0 2.612.935 3.292 1.911v-5.777h2.401V38.21h-2.401v-1.806c-.702 1.083-1.678 2.019-3.292 2.019-2.251 0-4.375-1.892-4.375-5.694zm-4.464-9.855h2.401V38.21h-2.401zm-7.457 4.078h2.4v2.21c.594-1.467 1.678-2.464 3.377-2.38v2.613h-.107c-1.953 0-3.27 1.274-3.27 3.845v4.97h-2.4zm-4.295 5.714v-.126c0-2.103-1.168-3.676-2.804-3.676-1.679 0-2.761 1.55-2.761 3.653v.128c0 2.102 1.169 3.695 2.804 3.695 1.677 0 2.761-1.572 2.761-3.674zm-7.965.042v-.19c0-3.313 2.209-5.778 5.204-5.778 2.974 0 5.161 2.422 5.161 5.756v.192c0 3.314-2.21 5.755-5.204 5.755-2.973 0-5.161-2.4-5.161-5.735zm-15.554-5.756h2.464l1.911 7.604 2.083-7.625h2.038l2.083 7.625 1.932-7.604h2.421l-3.165 11.343h-2.21l-2.1-7.519-2.126 7.519h-2.188zm155.81-12.137l1.128-1.72c1.018.829 2.101 1.317 3.098 1.317 1 0 1.574-.532 1.574-1.232v-.022c0-.806-.87-1.167-2.208-1.741-1.68-.722-3.082-1.487-3.082-3.335V8.04c0-2.018 1.615-3.293 3.716-3.293 1.256 0 2.595.447 3.655 1.21l-1.019 1.764c-.849-.574-1.784-.998-2.677-.998-.89 0-1.421.488-1.421 1.104v.043c0 .744.89 1.126 2.208 1.72 1.742.786 3.057 1.593 3.057 3.356v.022c0 2.209-1.677 3.42-3.844 3.42-1.339 0-2.888-.49-4.185-1.573zm-5.84-1.359V6.978h-1.232v-2.06h1.232V1.88h2.397v3.038h2.53v2.06h-2.53v5.99c0 .87.448 1.232 1.212 1.232a2.71 2.71 0 0 0 1.296-.32v1.976a4.086 4.086 0 0 1-1.997.489c-1.656 0-2.908-.701-2.908-2.889zm-8.011-8.538h2.399v2.209c.596-1.466 1.678-2.464 3.377-2.38v2.614h-.107c-1.953 0-3.27 1.274-3.27 3.844v4.97h-2.399zm-4.188 4.884c-.128-1.784-.935-3.079-2.339-3.079-1.314 0-2.249 1.168-2.42 3.08zm-7.137.872v-.17c0-3.377 2.038-5.8 4.798-5.8 3.06 0 4.675 2.55 4.675 5.927 0 .149 0 .488-.021.828h-7.052c.212 1.891 1.381 2.91 2.846 2.91 1.06 0 1.847-.467 2.592-1.19l1.252 1.488c-1.021 1.084-2.273 1.741-3.95 1.741-2.89 0-5.14-2.208-5.14-5.734zm-3.639-.021v-.192c0-2.251-1.167-3.632-2.612-3.632-1.444 0-2.677 1.402-2.677 3.61v.214c0 2.208 1.233 3.61 2.677 3.61 1.467 0 2.612-1.36 2.612-3.61zm-7.645-5.735h2.401v1.805c.7-1.083 1.676-2.018 3.29-2.018 2.253 0 4.377 1.89 4.377 5.692v.298c0 3.78-2.104 5.692-4.376 5.692-1.635 0-2.612-.913-3.291-1.911v4.906h-2.401zm-6.227 3.78l2.187-3.78h2.526l-3.376 5.5 3.526 5.757H280.7l-2.295-4.014-2.314 4.014h-2.528l3.484-5.756-3.356-5.501h2.59zm-7.716 1.104c-.128-1.784-.935-3.079-2.336-3.079-1.319 0-2.252 1.168-2.423 3.08zm-7.136.872v-.17c0-3.377 2.039-5.8 4.8-5.8 3.059 0 4.673 2.55 4.673 5.927 0 .149 0 .488-.022.828h-7.051c.212 1.891 1.38 2.91 2.845 2.91 1.063 0 1.848-.467 2.592-1.19l1.254 1.488c-1.02 1.084-2.274 1.741-3.951 1.741-2.89 0-5.14-2.208-5.14-5.734zm-9.841-.617v-.042c0-1.975-1.252-3.208-2.696-3.208-1.466 0-2.594 1.211-2.594 3.208v.021c0 1.997 1.15 3.229 2.594 3.229s2.696-1.253 2.696-3.208zm-7.242 8.305l.786-1.89a6.583 6.583 0 0 0 3.378.956c1.974 0 3.058-.977 3.058-2.974v-1.083c-.787 1.105-1.764 1.975-3.399 1.975-2.252 0-4.29-1.805-4.29-5.267v-.085c0-3.483 2.06-5.29 4.29-5.29 1.656 0 2.656.893 3.377 1.891V4.918h2.402v9.43c0 1.678-.448 2.91-1.276 3.738-.891.914-2.272 1.339-4.056 1.339-1.551 0-2.975-.361-4.27-1.063zM235.465 4.918h2.4v1.657c.638-1 1.551-1.87 3.08-1.87 2.167 0 3.462 1.53 3.462 3.93v7.54h-2.399v-6.86c0-1.573-.744-2.444-2.017-2.444-1.255 0-2.126.935-2.126 2.485v6.819h-2.4zm-4.929 0h2.4v11.257h-2.4zm-.085-3.994H233v2.358h-2.55zm-6.82 12.532V6.978h-1.232v-2.06h1.232V1.88h2.4v3.038h2.526v2.06h-2.526v5.99c0 .87.446 1.232 1.21 1.232.468 0 .892-.107 1.296-.32v1.976a4.09 4.09 0 0 1-1.997.489c-1.656 0-2.91-.701-2.91-2.889zm-5.398-8.538h2.4v11.257h-2.4zM218.15.924h2.548v2.358h-2.548zm-11.388 11.534v-7.54h2.399v6.86c0 1.572.744 2.442 1.997 2.442 1.252 0 2.124-.934 2.124-2.485V4.918h2.422v11.257h-2.422V14.54c-.637.998-1.529 1.847-3.058 1.847-2.188 0-3.462-1.508-3.462-3.93zm-7.225-7.54h2.4v2.209c.595-1.466 1.677-2.464 3.377-2.38v2.614h-.106c-1.954 0-3.271 1.274-3.271 3.844v4.97h-2.4zm-10.41 5.777v-.213c0-3.355 2.187-5.777 5.14-5.777 1.614 0 2.675.595 3.61 1.53l-1.339 1.762c-.593-.616-1.253-1.126-2.272-1.126-1.572 0-2.718 1.509-2.718 3.633v.105c0 2.189 1.146 3.654 2.782 3.654.976 0 1.635-.488 2.294-1.147l1.296 1.593c-.892.998-2.019 1.7-3.739 1.7-2.932 0-5.055-2.358-5.055-5.714zm-3.68-.893c-.127-1.784-.935-3.079-2.335-3.079-1.319 0-2.254 1.168-2.423 3.08zm-7.137.872v-.17c0-3.377 2.039-5.8 4.802-5.8 3.056 0 4.67 2.55 4.67 5.927 0 .149 0 .488-.02.828h-7.052c.214 1.891 1.38 2.91 2.847 2.91 1.061 0 1.848-.467 2.59-1.19l1.253 1.488c-1.018 1.084-2.271 1.741-3.951 1.741-2.888 0-5.139-2.208-5.139-5.734zm-6.845-1.954c1.912 0 2.975-1.02 2.975-2.57v-.043c0-1.678-1.084-2.549-2.932-2.549h-2.696V8.72zm-5.117-7.414h5.373c1.7 0 3.08.51 3.97 1.402.787.786 1.234 1.912 1.234 3.271v.085c0 2.294-1.275 3.717-3.08 4.355l3.504 5.756h-2.845l-3.167-5.268c-.041.022-.105.022-.148.022h-2.377v5.246h-2.464zM137.235 13.65c-4.087-.685-8.11-.461-8.427-2.162-.34-1.557 1.806-1.917 3.4-1.838 3.332-.141 8.112 1.32 10.893 2.388.018-.03 5.422-8.472 5.422-8.472C143.888 1.105 136.824-.4 130.118.1c-8.74.651-13.97 6.05-13.662 12.344.027 8.083 7.976 10.45 11.852 11.11 5.667 1.088 10.05.61 9.881 2.762-.024 1.464-2.749 1.948-5.657 1.764-3.293-.014-7.822-.964-11.947-3.506l-5.653 8.792c6.509 4.607 14.305 5.62 20.463 5.161 8.204-.75 14.466-4.607 15.048-11.307 1.222-8.997-6.027-12.536-13.208-13.57M30.917.427c-3.262 0-6.523.044-6.429.138v12.326c.03-.029-2.892-.047-5.815-.047-2.922 0-5.844.018-5.816.047V.565C12.953.471 9.691.427 6.43.427 3.171.427-.09.471.002.565v37.519c-.01.094 3.21.14 6.427.14 3.22 0 6.44-.046 6.428-.14v-12.88c-.003.03 2.907.043 5.816.043 2.91 0 5.82-.012 5.815-.044v12.881c-.012.094 3.208.14 6.43.14 3.218 0 6.438-.046 6.426-.14V.565C37.44.471 34.18.427 30.917.427M57.89 23.714c-.038.052 3.677-10.558 3.675-10.506.002-.052 3.492 10.558 3.455 10.506.037.052-7.168.052-7.13 0zM68.102.55c.068-.188-13.123-.188-13.06 0-.063-.188-15.229 37.713-15.014 37.523-.215.19 12.71.19 12.835 0 .035-.154 1.786-5.159 1.854-5.292-.07.138 13.349.138 13.284 0 .062.133 1.71 5.138 1.74 5.292.124.19 13.373.19 13.158 0 .215.19-14.73-37.71-14.797-37.523zm49.873.002c.216-.19-15.06 23.95-15.123 23.899v13.622c.063.19-12.748.19-12.683 0V24.451C90.104 24.503 74.838.362 75.05.552c-.213-.19 13.502-.19 13.581 0-.08-.19 7.878 12.375 7.878 12.438 0-.063 7.957-12.628 7.879-12.438.078-.19 13.802-.19 13.586 0" fill="#2b3078"/></svg>